<svg width="94" height="94" viewBox="0 0 94 94" fill="none" xmlns="http://www.w3.org/2000/svg">
<path d="M32.5626 4.23932C32.2385 4.96733 31.6896 5.47981 30.916 5.77678C30.1424 6.07374 29.3916 6.06017 28.6635 5.73604C27.8927 5.39284 27.3588 4.83442 27.0619 4.0608C26.7649 3.28718 26.7785 2.53636 27.1026 1.80835C27.4458 1.03753 28.0042 0.503627 28.7778 0.206663C29.5515 -0.0903085 30.3237 -0.067193 31.0945 0.276002C31.8225 0.600131 32.335 1.14901 32.632 1.92264C32.9289 2.69626 32.9058 3.46849 32.5626 4.23932ZM43.5469 9.12985C43.2228 9.85786 42.6739 10.3703 41.9003 10.6673C41.1267 10.9643 40.3544 10.9412 39.5836 10.598C38.8556 10.2738 38.3431 9.72496 38.0462 8.95133C37.7492 8.17771 37.7628 7.42689 38.0869 6.69888C38.4301 5.92806 38.9885 5.39416 39.7621 5.0972C40.5358 4.80022 41.2866 4.81381 42.0146 5.13793C42.7854 5.48113 43.3193 6.03954 43.6163 6.81317C43.9132 7.5868 43.8901 8.35902 43.5469 9.12985ZM57.2291 15.2216C56.905 15.9496 56.3561 16.4621 55.5825 16.759C54.8089 17.056 54.0581 17.0424 53.33 16.7183C52.5592 16.3751 52.0253 15.8167 51.7284 15.043C51.4314 14.2694 51.445 13.5186 51.7691 12.7906C52.1123 12.0198 52.6707 11.4859 53.4443 11.1889C54.218 10.8919 54.9902 10.9151 55.761 11.2582C56.489 11.5824 57.0015 12.1313 57.2985 12.9049C57.5954 13.6785 57.5723 14.4507 57.2291 15.2216ZM68.2134 20.1121C67.8893 20.8401 67.3404 21.3526 66.5668 21.6496C65.7932 21.9465 65.0209 21.9234 64.2501 21.5802C63.5221 21.2561 63.0096 20.7072 62.7127 19.9336C62.4157 19.16 62.4293 18.4091 62.7534 17.6811C63.0966 16.9103 63.655 16.3764 64.4286 16.0794C65.2023 15.7825 65.9531 15.7961 66.6811 16.1202C67.4519 16.4634 67.9858 17.0218 68.2828 17.7954C68.5797 18.569 68.5566 19.3413 68.2134 20.1121ZM79.1977 25.0026C78.8736 25.7306 78.3247 26.2431 77.5511 26.5401C76.7775 26.8371 76.0052 26.8139 75.2344 26.4708C74.4636 26.1276 73.9297 25.5691 73.6327 24.7955C73.3357 24.0219 73.3493 23.2711 73.6735 22.5431C74.0167 21.7722 74.5751 21.2383 75.3487 20.9414C76.1223 20.6444 76.8946 20.6675 77.6654 21.0107C78.4362 21.3539 78.9701 21.9123 79.2671 22.686C79.564 23.4596 79.5409 24.2318 79.1977 25.0026ZM92.8799 31.0943C92.5558 31.8224 92.0069 32.3348 91.2333 32.6318C90.4597 32.9288 89.6874 32.9057 88.9166 32.5625C88.1886 32.2383 87.6761 31.6895 87.3792 30.9158C87.0822 30.1422 87.0958 29.3914 87.4199 28.6634C87.7631 27.8926 88.3215 27.3587 89.0951 27.0617C89.8688 26.7647 90.6196 26.7783 91.3476 27.1024C92.1184 27.4456 92.6523 28.004 92.9493 28.7777C93.2462 29.5513 93.2231 30.3235 92.8799 31.0943ZM27.7007 15.1594C27.3575 15.9302 26.7991 16.4641 26.0255 16.7611C25.2518 17.058 24.501 17.0445 23.773 16.7203C23.0022 16.3771 22.4683 15.8187 22.1713 15.0451C21.8744 14.2715 21.8975 13.4992 22.2407 12.7284C22.5648 12.0004 23.1137 11.4879 23.8873 11.191C24.6609 10.894 25.4332 10.9171 26.204 11.2603C26.932 11.5844 27.4445 12.1333 27.7414 12.9069C28.0384 13.6806 28.0248 14.4314 27.7007 15.1594ZM38.685 20.0499C38.3418 20.8207 37.7834 21.3546 37.0098 21.6516C36.2361 21.9486 35.4639 21.9255 34.6931 21.5823C33.9651 21.2581 33.4526 20.7093 33.1556 19.9356C32.8587 19.162 32.8818 18.3898 33.225 17.619C33.5491 16.8909 34.098 16.3785 34.8716 16.0815C35.6452 15.7845 36.396 15.7981 37.124 16.1222C37.8949 16.4654 38.4288 17.0238 38.7257 17.7975C39.0227 18.5711 39.0091 19.3219 38.685 20.0499ZM52.3672 26.1416C52.024 26.9125 51.4656 27.4464 50.692 27.7433C49.9183 28.0403 49.1675 28.0267 48.4395 27.7026C47.6687 27.3594 47.1348 26.801 46.8378 26.0273C46.5409 25.2537 46.564 24.4815 46.9072 23.7107C47.2313 22.9827 47.7802 22.4702 48.5538 22.1732C49.3274 21.8762 50.0997 21.8994 50.8705 22.2425C51.5985 22.5667 52.111 23.1156 52.4079 23.8892C52.7049 24.6628 52.6913 25.4136 52.3672 26.1416ZM63.3515 31.0322C63.0083 31.803 62.4499 32.3369 61.6763 32.6339C60.9026 32.9308 60.1304 32.9077 59.3596 32.5645C58.6316 32.2404 58.1191 31.6915 57.8221 30.9179C57.5252 30.1443 57.5483 29.372 57.8915 28.6012C58.2156 27.8732 58.7645 27.3607 59.5381 27.0637C60.3117 26.7668 61.0625 26.7804 61.7905 27.1045C62.5614 27.4477 63.0953 28.0061 63.3922 28.7797C63.6892 29.5533 63.6756 30.3042 63.3515 31.0322ZM74.3358 35.9227C73.9926 36.6935 73.4342 37.2274 72.6606 37.5244C71.8869 37.8214 71.1147 37.7982 70.3439 37.455C69.5731 37.1119 69.0392 36.5534 68.7422 35.7798C68.4452 35.0062 68.4683 34.234 68.8115 33.4631C69.1357 32.7351 69.6845 32.2226 70.4582 31.9257C71.2318 31.6287 72.004 31.6518 72.7748 31.995C73.5457 32.3382 74.0796 32.8966 74.3765 33.6702C74.6735 34.4439 74.6599 35.1947 74.3358 35.9227ZM88.018 42.0144C87.6748 42.7852 87.1164 43.3191 86.3428 43.6161C85.5691 43.9131 84.7969 43.89 84.0261 43.5468C83.2981 43.2226 82.7856 42.6738 82.4886 41.9001C82.1917 41.1265 82.2148 40.3543 82.558 39.5834C82.8821 38.8554 83.431 38.343 84.2046 38.046C84.9782 37.749 85.729 37.7626 86.457 38.0867C87.2279 38.4299 87.7618 38.9883 88.0587 39.762C88.3557 40.5356 88.3421 41.2864 88.018 42.0144ZM21.5804 28.9058C21.2563 29.6338 20.7074 30.1463 19.9337 30.4433C19.1601 30.7402 18.4093 30.7267 17.6813 30.4025C16.9105 30.0593 16.3766 29.5009 16.0796 28.7273C15.7826 27.9537 15.7962 27.2029 16.1203 26.4749C16.4635 25.704 17.022 25.1701 17.7956 24.8732C18.5692 24.5762 19.3414 24.5993 20.1123 24.9425C20.8403 25.2666 21.3528 25.8155 21.6497 26.5891C21.9467 27.3628 21.9236 28.135 21.5804 28.9058ZM32.5647 33.7964C32.2406 34.5244 31.6917 35.0368 30.918 35.3338C30.1444 35.6308 29.3722 35.6077 28.6014 35.2645C27.8734 34.9403 27.3609 34.3915 27.0639 33.6178C26.7669 32.8442 26.7805 32.0934 27.1046 31.3654C27.4478 30.5946 28.0063 30.0607 28.7799 29.7637C29.5535 29.4667 30.3043 29.4803 31.0323 29.8044C31.8032 30.1476 32.3371 30.706 32.634 31.4797C32.931 32.2533 32.9079 33.0255 32.5647 33.7964ZM46.2469 39.8881C45.9228 40.6161 45.3739 41.1286 44.6002 41.4255C43.8266 41.7225 43.0758 41.7089 42.3478 41.3848C41.577 41.0416 41.0431 40.4832 40.7461 39.7095C40.4491 38.9359 40.4627 38.1851 40.7868 37.4571C41.13 36.6863 41.6885 36.1524 42.4621 35.8554C43.2357 35.5584 44.0079 35.5816 44.7788 35.9247C45.5068 36.2489 46.0193 36.7978 46.3162 37.5714C46.6132 38.345 46.5901 39.1172 46.2469 39.8881ZM57.2312 44.7786C56.9071 45.5066 56.3582 46.0191 55.5845 46.3161C54.8109 46.613 54.0387 46.5899 53.2679 46.2467C52.5399 45.9226 52.0274 45.3737 51.7304 44.6001C51.4334 43.8265 51.447 43.0756 51.7711 42.3476C52.1143 41.5768 52.6728 41.0429 53.4464 40.7459C54.22 40.449 54.9708 40.4626 55.6988 40.7867C56.4697 41.1299 57.0036 41.6883 57.3005 42.4619C57.5975 43.2355 57.5744 44.0078 57.2312 44.7786ZM68.2155 49.6691C67.8914 50.3971 67.3425 50.9096 66.5688 51.2066C65.7952 51.5036 65.023 51.4804 64.2522 51.1372C63.4813 50.7941 62.9474 50.2356 62.6505 49.462C62.3535 48.6884 62.3671 47.9376 62.6912 47.2096C63.0344 46.4387 63.5928 45.9048 64.3664 45.6079C65.1401 45.3109 65.9123 45.334 66.6831 45.6772C67.454 46.0204 67.9879 46.5788 68.2848 47.3524C68.5818 48.1261 68.5587 48.8983 68.2155 49.6691ZM81.8977 55.7608C81.5735 56.4888 81.0247 57.0013 80.251 57.2983C79.4774 57.5953 78.7052 57.5722 77.9344 57.229C77.2064 56.9048 76.6939 56.356 76.3969 55.5823C76.0999 54.8087 76.1135 54.0579 76.4376 53.3299C76.7808 52.5591 77.3393 52.0252 78.1129 51.7282C78.8865 51.4312 79.6373 51.4448 80.3653 51.7689C81.1362 52.1121 81.6701 52.6705 81.967 53.4442C82.264 54.2178 82.2409 54.99 81.8977 55.7608ZM16.7184 39.8259C16.3753 40.5967 15.8168 41.1306 15.0432 41.4276C14.2696 41.7245 13.5188 41.711 12.7908 41.3868C12.0199 41.0436 11.486 40.4852 11.1891 39.7116C10.8921 38.938 10.9152 38.1657 11.2584 37.3949C11.5825 36.6669 12.1314 36.1544 12.9051 35.8575C13.6787 35.5605 14.4509 35.5836 15.2217 35.9268C15.9497 36.2509 16.4622 36.7998 16.7592 37.5734C17.0562 38.3471 17.0426 39.0979 16.7184 39.8259ZM27.7027 44.7164C27.3596 45.4872 26.8011 46.0211 26.0275 46.3181C25.2539 46.6151 24.4817 46.592 23.7108 46.2488C22.9828 45.9246 22.4703 45.3758 22.1734 44.6021C21.8764 43.8285 21.8995 43.0563 22.2427 42.2854C22.5668 41.5574 23.1157 41.045 23.8894 40.748C24.663 40.451 25.4138 40.4646 26.1418 40.7887C26.9126 41.1319 27.4465 41.6903 27.7435 42.464C28.0405 43.2376 28.0269 43.9884 27.7027 44.7164ZM41.3849 50.8081C41.0418 51.579 40.4833 52.1129 39.7097 52.4098C38.9361 52.7068 38.1853 52.6932 37.4573 52.3691C36.6864 52.0259 36.1525 51.4675 35.8556 50.6938C35.5586 49.9202 35.5817 49.148 35.9249 48.3772C36.249 47.6492 36.7979 47.1367 37.5716 46.8397C38.3452 46.5427 39.1174 46.5659 39.8882 46.909C40.6162 47.2332 41.1287 47.7821 41.4257 48.5557C41.7227 49.3293 41.7091 50.0801 41.3849 50.8081ZM52.3692 55.6987C52.0261 56.4695 51.4676 57.0034 50.694 57.3004C49.9204 57.5973 49.1482 57.5742 48.3773 57.231C47.6493 56.9069 47.1368 56.358 46.8399 55.5844C46.5429 54.8108 46.566 54.0385 46.9092 53.2677C47.2333 52.5397 47.7822 52.0272 48.5558 51.7302C49.3295 51.4333 50.0803 51.4469 50.8083 51.771C51.5791 52.1142 52.113 52.6726 52.41 53.4462C52.707 54.2198 52.6934 54.9707 52.3692 55.6987ZM63.3535 60.5892C63.0104 61.36 62.4519 61.8939 61.6783 62.1909C60.9047 62.4879 60.1325 62.4647 59.3616 62.1215C58.5908 61.7783 58.0569 61.2199 57.7599 60.4463C57.463 59.6727 57.4861 58.9005 57.8293 58.1296C58.1534 57.4016 58.7023 56.8891 59.4759 56.5922C60.2495 56.2952 61.0218 56.3183 61.7926 56.6615C62.5634 57.0047 63.0973 57.5631 63.3943 58.3367C63.6913 59.1104 63.6777 59.8612 63.3535 60.5892ZM77.0357 66.6809C76.6925 67.4517 76.1341 67.9856 75.3605 68.2826C74.5869 68.5796 73.8147 68.5565 73.0438 68.2133C72.3158 67.8891 71.8033 67.3403 71.5064 66.5666C71.2094 65.793 71.2325 65.0208 71.5757 64.2499C71.8998 63.5219 72.4487 63.0095 73.2223 62.7125C73.996 62.4155 74.7468 62.4291 75.4748 62.7532C76.2456 63.0964 76.7795 63.6548 77.0765 64.4285C77.3735 65.2021 77.3599 65.9529 77.0357 66.6809ZM11.8279 50.8102C11.4847 51.581 10.9263 52.1149 10.1527 52.4119C9.37906 52.7088 8.62824 52.6953 7.90024 52.3711C7.12941 52.0279 6.59551 51.4695 6.29854 50.6959C6.00158 49.9223 6.02469 49.15 6.36789 48.3792C6.71108 47.6084 7.26949 47.0745 8.04312 46.7775C8.81675 46.4806 9.58897 46.5037 10.3598 46.8469C11.0878 47.171 11.6003 47.7199 11.8973 48.4935C12.1942 49.2671 12.1711 50.0394 11.8279 50.8102ZM22.8122 55.7007C22.469 56.4715 21.9106 57.0054 21.137 57.3024C20.3634 57.5994 19.5911 57.5763 18.8203 57.2331C18.0923 56.9089 17.5798 56.3601 17.2828 55.5864C16.9859 54.8128 17.009 54.0406 17.3522 53.2697C17.6954 52.4989 18.2538 51.965 19.0274 51.6681C19.801 51.3711 20.5519 51.3847 21.2799 51.7088C22.0507 52.052 22.5846 52.6104 22.8816 53.384C23.1785 54.1577 23.1554 54.9299 22.8122 55.7007ZM36.4944 61.7924C36.1512 62.5633 35.5928 63.0972 34.8192 63.3941C34.0456 63.6911 33.2947 63.6775 32.5667 63.3534C31.7959 63.0102 31.262 62.4518 30.965 61.6781C30.6681 60.9045 30.6912 60.1323 31.0344 59.3615C31.3776 58.5906 31.936 58.0567 32.7096 57.7598C33.4832 57.4628 34.2555 57.4859 35.0263 57.8291C35.7543 58.1532 36.2668 58.7021 36.5638 59.4757C36.8607 60.2494 36.8376 61.0216 36.4944 61.7924ZM47.4787 66.683C47.1355 67.4538 46.5771 67.9877 45.8035 68.2847C45.0299 68.5816 44.2576 68.5585 43.4868 68.2153C42.7588 67.8912 42.2463 67.3423 41.9493 66.5687C41.6524 65.7951 41.6755 65.0228 42.0187 64.252C42.3619 63.4812 42.9203 62.9473 43.6939 62.6503C44.4675 62.3533 45.2184 62.3669 45.9464 62.691C46.7172 63.0342 47.2511 63.5927 47.5481 64.3663C47.845 65.1399 47.8219 65.9121 47.4787 66.683ZM58.463 71.5735C58.1198 72.3443 57.5614 72.8782 56.7878 73.1752C56.0142 73.4722 55.2419 73.449 54.4711 73.1058C53.7003 72.7627 53.1664 72.2042 52.8694 71.4306C52.5724 70.657 52.5956 69.8848 52.9387 69.1139C53.2819 68.3431 53.8404 67.8092 54.614 67.5122C55.3876 67.2153 56.1598 67.2384 56.9307 67.5816C57.7015 67.9248 58.2354 68.4832 58.5324 69.2568C58.8293 70.0304 58.8062 70.8027 58.463 71.5735ZM72.1452 77.6652C71.802 78.436 71.2436 78.9699 70.47 79.2669C69.6964 79.5639 68.9241 79.5408 68.1533 79.1976C67.4253 78.8734 66.9128 78.3246 66.6158 77.5509C66.3189 76.7773 66.342 76.0051 66.6852 75.2342C67.0284 74.4634 67.5868 73.9295 68.3604 73.6326C69.134 73.3356 69.8849 73.3492 70.6129 73.6733C71.3837 74.0165 71.9176 74.5749 72.2146 75.3485C72.5115 76.1222 72.4884 76.8944 72.1452 77.6652ZM5.7362 64.4924C5.39301 65.2632 4.8346 65.7971 4.06097 66.0941C3.28734 66.391 2.53652 66.3775 1.80852 66.0533C1.03769 65.7101 0.503795 65.1517 0.206828 64.3781C-0.0901395 63.6045 -0.0670255 62.8322 0.27617 62.0614C0.600298 61.3334 1.14918 60.8209 1.9228 60.524C2.69643 60.227 3.46866 60.2501 4.23949 60.5933C4.96749 60.9174 5.47998 61.4663 5.77694 62.2399C6.07391 63.0136 6.06033 63.7644 5.7362 64.4924ZM16.7205 69.3829C16.3773 70.1537 15.8189 70.6876 15.0453 70.9846C14.2716 71.2816 13.4994 71.2585 12.7286 70.9153C12.0006 70.5911 11.4881 70.0423 11.1911 69.2686C10.8942 68.495 10.9173 67.7228 11.2605 66.9519C11.5846 66.2239 12.1335 65.7115 12.9071 65.4145C13.6807 65.1175 14.4315 65.1311 15.1596 65.4552C15.9304 65.7984 16.4643 66.3568 16.7612 67.1305C17.0582 67.9041 17.0446 68.6549 16.7205 69.3829ZM30.4027 75.4746C30.0595 76.2455 29.5011 76.7794 28.7275 77.0763C27.9538 77.3733 27.203 77.3597 26.475 77.0356C25.7042 76.6924 25.1703 76.134 24.8733 75.3603C24.5764 74.5867 24.5995 73.8145 24.9427 73.0437C25.2668 72.3157 25.8157 71.8032 26.5893 71.5062C27.3629 71.2092 28.1352 71.2324 28.906 71.5755C29.634 71.8997 30.1465 72.4486 30.4434 73.2222C30.7404 73.9958 30.7268 74.7466 30.4027 75.4746ZM41.387 80.3652C41.0438 81.136 40.4854 81.6699 39.7118 81.9669C38.9381 82.2638 38.1659 82.2407 37.3951 81.8975C36.6671 81.5734 36.1546 81.0245 35.8576 80.2509C35.5607 79.4772 35.5838 78.705 35.927 77.9342C36.2511 77.2062 36.8 76.6937 37.5736 76.3967C38.3472 76.0998 39.098 76.1134 39.826 76.4375C40.5969 76.7807 41.1308 77.3391 41.4277 78.1127C41.7247 78.8863 41.7111 79.6372 41.387 80.3652ZM52.3713 85.2557C52.0281 86.0265 51.4697 86.5604 50.6961 86.8574C49.9224 87.1544 49.1502 87.1312 48.3794 86.788C47.6086 86.4448 47.0747 85.8864 46.7777 85.1128C46.4807 84.3392 46.5038 83.567 46.847 82.7961C47.1712 82.0681 47.72 81.5556 48.4937 81.2587C49.2673 80.9617 50.0395 80.9848 50.8104 81.328C51.5812 81.6712 52.1151 82.2296 52.412 83.0032C52.709 83.7769 52.6954 84.5277 52.3713 85.2557ZM66.0535 91.3474C65.7103 92.1182 65.1519 92.6521 64.3783 92.9491C63.6046 93.2461 62.8324 93.223 62.0616 92.8798C61.3336 92.5556 60.8211 92.0068 60.5241 91.2331C60.2272 90.4595 60.2503 89.6873 60.5935 88.9164C60.9176 88.1884 61.4665 87.676 62.2401 87.379C63.0137 87.082 63.7645 87.0956 64.4926 87.4197C65.2634 87.7629 65.7973 88.3213 66.0942 89.095C66.3912 89.8686 66.3776 90.6194 66.0535 91.3474Z" fill="#EEEEEE"/>
</svg>
