<svg width="203" height="232" viewBox="0 0 203 232" fill="none" xmlns="http://www.w3.org/2000/svg">
<path d="M57.3541 10.5454C56.577 12.3564 55.2611 13.6312 53.4064 14.3699C51.5516 15.1087 49.7516 15.0749 48.0062 14.2686C46.1582 13.4149 44.8782 12.0258 44.1662 10.1013C43.4542 8.17689 43.4868 6.3092 44.2639 4.49824C45.0867 2.58076 46.4254 1.25266 48.2802 0.51393C50.1349 -0.224785 51.9863 -0.16729 53.8344 0.686428C55.5797 1.49272 56.8084 2.85809 57.5204 4.78252C58.2323 6.70697 58.1769 8.62793 57.3541 10.5454ZM83.6886 22.7109C82.9115 24.5218 81.5956 25.7967 79.7409 26.5354C77.8861 27.2741 76.0347 27.2166 74.1867 26.3629C72.4413 25.5566 71.2127 24.1913 70.5007 22.2668C69.7887 20.3424 69.8213 18.4747 70.5984 16.6637C71.4212 14.7462 72.76 13.4181 74.6147 12.6794C76.4694 11.9407 78.2695 11.9745 80.0149 12.7808C81.8629 13.6345 83.1429 15.0236 83.8549 16.948C84.5668 18.8725 84.5114 20.7934 83.6886 22.7109ZM116.491 37.8644C115.714 39.6753 114.398 40.9502 112.544 41.6889C110.689 42.4276 108.889 42.3938 107.143 41.5875C105.295 40.7338 104.015 39.3448 103.303 37.4203C102.591 35.4959 102.624 33.6282 103.401 31.8172C104.224 29.8997 105.563 28.5716 107.417 27.8329C109.272 27.0942 111.123 27.1517 112.972 28.0054C114.717 28.8117 115.946 30.1771 116.658 32.1015C117.369 34.0259 117.314 35.9469 116.491 37.8644ZM142.826 50.0299C142.049 51.8408 140.733 53.1157 138.878 53.8544C137.023 54.5931 135.172 54.5356 133.324 53.6819C131.578 52.8756 130.35 51.5102 129.638 49.5858C128.926 47.6613 128.958 45.7937 129.736 43.9827C130.558 42.0652 131.897 40.7371 133.752 39.9984C135.607 39.2597 137.407 39.2935 139.152 40.0997C141 40.9535 142.28 42.3425 142.992 44.267C143.704 46.1914 143.649 48.1124 142.826 50.0299ZM169.16 62.1954C168.383 64.0063 167.067 65.2811 165.213 66.0199C163.358 66.7586 161.506 66.7011 159.658 65.8474C157.81 64.9937 156.53 63.6046 155.818 61.6801C155.106 59.7557 155.139 57.888 155.916 56.077C156.739 54.1596 158.078 52.8315 159.932 52.0927C161.787 51.354 163.638 51.4115 165.487 52.2652C167.335 53.1189 168.615 54.508 169.327 56.4325C170.038 58.3569 169.983 60.2779 169.16 62.1954ZM201.963 77.3488C201.186 79.1598 199.87 80.4346 198.015 81.1734C196.16 81.9121 194.309 81.8546 192.461 81.0009C190.716 80.1946 189.487 78.8292 188.775 76.9048C188.063 74.9803 188.096 73.1126 188.873 71.3017C189.695 69.3842 191.034 68.0561 192.889 67.3174C194.744 66.5787 196.544 66.6124 198.289 67.4187C200.137 68.2724 201.417 69.6615 202.129 71.586C202.841 73.5104 202.786 75.4314 201.963 77.3488ZM45.6978 37.7097C44.875 39.6272 43.5362 40.9553 41.6815 41.694C39.8267 42.4327 38.0267 42.3989 36.2813 41.5927C34.4333 40.7389 33.1533 39.3499 32.4413 37.4254C31.7293 35.501 31.7847 33.58 32.6075 31.6625C33.3846 29.8516 34.7005 28.5767 36.5553 27.838C38.41 27.0993 40.2614 27.1568 42.1095 28.0105C43.8548 28.8168 45.0835 30.1822 45.7955 32.1066C46.5074 34.0311 46.4749 35.8988 45.6978 37.7097ZM72.0323 49.8752C71.2095 51.7927 69.8707 53.1208 68.016 53.8595C66.1612 54.5982 64.3098 54.5407 62.4618 53.687C60.7164 52.8807 59.4878 51.5153 58.7758 49.5909C58.0638 47.6665 58.1193 45.7455 58.942 43.828C59.7191 42.0171 61.0351 40.7422 62.8898 40.0035C64.7446 39.2648 66.5446 39.2986 68.29 40.1048C70.138 40.9586 71.418 42.3477 72.13 44.2721C72.842 46.1965 72.8094 48.0642 72.0323 49.8752ZM104.835 65.0287C104.012 66.9462 102.673 68.2743 100.819 69.013C98.9639 69.7517 97.1638 69.7179 95.4184 68.9116C93.5704 68.0579 92.2904 66.6688 91.5784 64.7444C90.8665 62.8199 90.9219 60.899 91.7447 58.9815C92.5218 57.1706 93.8377 55.8957 95.6924 55.157C97.5472 54.4183 99.3986 54.4758 101.247 55.3295C102.992 56.1358 104.221 57.5011 104.933 59.4256C105.645 61.35 105.612 63.2177 104.835 65.0287ZM131.169 77.1942C130.347 79.1116 129.008 80.4397 127.153 81.1785C125.298 81.9172 123.447 81.8597 121.599 81.006C119.854 80.1997 118.625 78.8343 117.913 76.9099C117.201 74.9854 117.256 73.0645 118.079 71.147C118.856 69.336 120.172 68.0612 122.027 67.3225C123.882 66.5838 125.682 66.6175 127.427 67.4238C129.275 68.2775 130.555 69.6666 131.267 71.5911C131.979 73.5155 131.947 75.3832 131.169 77.1942ZM157.504 89.3597C156.681 91.2771 155.342 92.6052 153.488 93.3439C151.633 94.0827 149.781 94.0252 147.933 93.1714C146.085 92.3177 144.805 90.9287 144.093 89.0042C143.381 87.0798 143.437 85.1588 144.26 83.2413C145.037 81.4304 146.353 80.1555 148.207 79.4168C150.062 78.6781 151.914 78.7356 153.762 79.5893C155.61 80.443 156.89 81.8321 157.602 83.7566C158.314 85.681 158.281 87.5487 157.504 89.3597ZM190.307 104.513C189.484 106.431 188.145 107.759 186.29 108.497C184.436 109.236 182.584 109.179 180.736 108.325C178.991 107.519 177.762 106.153 177.05 104.229C176.338 102.304 176.394 100.383 177.216 98.466C177.993 96.655 179.309 95.3802 181.164 94.6415C183.019 93.9027 184.819 93.9365 186.564 94.7428C188.412 95.5965 189.692 96.9856 190.404 98.9101C191.116 100.834 191.084 102.702 190.307 104.513ZM31.0245 71.9048C30.2474 73.7157 28.9315 74.9905 27.0768 75.7293C25.222 76.468 23.422 76.4342 21.6766 75.6279C19.8286 74.7742 18.5486 73.3851 17.8366 71.4607C17.1246 69.5362 17.1572 67.6685 17.9343 65.8576C18.7571 63.9401 20.0959 62.612 21.9506 61.8733C23.8053 61.1346 25.6567 61.1921 27.5048 62.0458C29.2501 62.8521 30.4788 64.2174 31.1908 66.1419C31.9027 68.0663 31.8473 69.9873 31.0245 71.9048ZM57.359 84.0702C56.582 85.8812 55.266 87.156 53.4113 87.8947C51.5565 88.6335 49.7052 88.576 47.8571 87.7223C46.1117 86.916 44.8831 85.5506 44.1711 83.6262C43.4591 81.7017 43.4917 79.834 44.2688 78.0231C45.0916 76.1056 46.4304 74.7775 48.2851 74.0388C50.1399 73.3 51.9399 73.3338 53.6853 74.1401C55.5333 74.9938 56.8133 76.3829 57.5253 78.3074C58.2373 80.2318 58.1818 82.1528 57.359 84.0702ZM90.1617 99.2237C89.3846 101.035 88.0687 102.31 86.2139 103.048C84.3592 103.787 82.5591 103.753 80.8138 102.947C78.9657 102.093 77.6857 100.704 76.9737 98.7797C76.2618 96.8552 76.2943 94.9875 77.0714 93.1766C77.8942 91.2591 79.233 89.931 81.0877 89.1923C82.9425 88.4535 84.7939 88.511 86.6419 89.3648C88.3873 90.171 89.616 91.5364 90.3279 93.4608C91.0399 95.3853 90.9845 97.3063 90.1617 99.2237ZM116.496 111.389C115.719 113.2 114.403 114.475 112.548 115.214C110.694 115.952 108.842 115.895 106.994 115.041C105.249 114.235 104.02 112.87 103.308 110.945C102.596 109.021 102.629 107.153 103.406 105.342C104.229 103.425 105.568 102.096 107.422 101.358C109.277 100.619 111.077 100.653 112.822 101.459C114.67 102.313 115.95 103.702 116.662 105.626C117.374 107.551 117.319 109.472 116.496 111.389ZM142.831 123.555C142.054 125.366 140.738 126.64 138.883 127.379C137.028 128.118 135.177 128.06 133.329 127.207C131.481 126.353 130.201 124.964 129.489 123.039C128.777 121.115 128.809 119.247 129.586 117.436C130.409 115.519 131.748 114.191 133.603 113.452C135.457 112.713 137.309 112.771 139.157 113.625C141.005 114.478 142.285 115.867 142.997 117.792C143.709 119.716 143.653 121.637 142.831 123.555ZM175.633 138.708C174.856 140.519 173.54 141.794 171.686 142.533C169.831 143.271 167.979 143.214 166.131 142.36C164.386 141.554 163.157 140.189 162.445 138.264C161.733 136.34 161.766 134.472 162.543 132.661C163.366 130.744 164.705 129.415 166.559 128.677C168.414 127.938 170.214 127.972 171.96 128.778C173.808 129.632 175.088 131.021 175.8 132.945C176.512 134.87 176.456 136.791 175.633 138.708ZM19.3682 99.0691C18.5454 100.987 17.2066 102.315 15.3519 103.053C13.4971 103.792 11.6971 103.758 9.95172 102.952C8.10368 102.098 6.82368 100.709 6.11171 98.7848C5.39974 96.8603 5.45515 94.9394 6.27795 93.0219C7.05504 91.2109 8.37096 89.9361 10.2257 89.1974C12.0805 88.4586 13.9318 88.5161 15.7799 89.3699C17.5252 90.1762 18.7539 91.5415 19.4659 93.466C20.1779 95.3904 20.1453 97.2581 19.3682 99.0691ZM45.7027 111.235C44.8799 113.152 43.5411 114.48 41.6864 115.219C39.8316 115.958 37.9803 115.9 36.1322 115.046C34.3869 114.24 33.1582 112.875 32.4462 110.95C31.7342 109.026 31.7897 107.105 32.6125 105.187C33.3896 103.376 34.7055 102.102 36.5602 101.363C38.415 100.624 40.215 100.658 41.9604 101.464C43.8084 102.318 45.0884 103.707 45.8004 105.631C46.5124 107.556 46.4798 109.424 45.7027 111.235ZM78.5053 126.388C77.6825 128.306 76.3438 129.634 74.489 130.372C72.6343 131.111 70.8342 131.077 69.0889 130.271C67.2408 129.417 65.9608 128.028 65.2488 126.104C64.5369 124.179 64.5923 122.258 65.4151 120.341C66.1922 118.53 67.5081 117.255 69.3628 116.516C71.2176 115.778 73.069 115.835 74.917 116.689C76.6624 117.495 77.8911 118.86 78.603 120.785C79.315 122.709 79.2824 124.577 78.5053 126.388ZM104.84 138.554C104.017 140.471 102.678 141.799 100.824 142.538C98.9688 143.277 97.1174 143.219 95.2694 142.365C93.524 141.559 92.2953 140.194 91.5834 138.269C90.8714 136.345 90.9268 134.424 91.7496 132.506C92.5267 130.695 93.8426 129.421 95.6974 128.682C97.5521 127.943 99.3522 127.977 101.098 128.783C102.946 129.637 104.226 131.026 104.938 132.95C105.65 134.875 105.617 136.743 104.84 138.554ZM131.174 150.719C130.352 152.636 129.013 153.965 127.158 154.703C125.303 155.442 123.452 155.385 121.604 154.531C119.756 153.677 118.476 152.288 117.764 150.364C117.052 148.439 117.107 146.518 117.93 144.601C118.707 142.79 120.023 141.515 121.878 140.776C123.733 140.037 125.584 140.095 127.432 140.949C129.28 141.802 130.56 143.191 131.272 145.116C131.984 147.04 131.951 148.908 131.174 150.719ZM163.977 165.872C163.154 167.79 161.815 169.118 159.961 169.857C158.106 170.596 156.255 170.538 154.407 169.684C152.661 168.878 151.432 167.513 150.72 165.588C150.009 163.664 150.064 161.743 150.887 159.825C151.664 158.014 152.98 156.74 154.834 156.001C156.689 155.262 158.489 155.296 160.235 156.102C162.083 156.956 163.363 158.345 164.075 160.269C164.787 162.194 164.754 164.062 163.977 165.872ZM7.64331 126.393C6.82051 128.311 5.48174 129.639 3.62699 130.377C1.77225 131.116 -0.0278124 131.082 -1.77318 130.276C-3.62121 129.422 -4.90122 128.033 -5.61319 126.109C-6.32515 124.184 -6.26974 122.263 -5.44694 120.346C-4.62414 118.428 -3.28537 117.1 -1.43062 116.362C0.424125 115.623 2.27552 115.68 4.12355 116.534C5.86892 117.34 7.09759 118.706 7.80956 120.63C8.52153 122.555 8.46611 124.476 7.64331 126.393ZM33.9778 138.559C33.155 140.476 31.8162 141.804 29.9615 142.543C28.1068 143.282 26.2554 143.224 24.4073 142.37C22.662 141.564 21.4333 140.199 20.7213 138.274C20.0094 136.35 20.0648 134.429 20.8876 132.511C21.7104 130.594 23.0491 129.266 24.9039 128.527C26.7586 127.788 28.5587 127.822 30.3041 128.628C32.1521 129.482 33.4321 130.871 34.1441 132.796C34.856 134.72 34.8006 136.641 33.9778 138.559ZM66.7805 153.712C65.9577 155.63 64.6189 156.958 62.7641 157.696C60.9094 158.435 59.1093 158.401 57.364 157.595C55.5159 156.741 54.2359 155.352 53.524 153.428C52.812 151.503 52.8674 149.582 53.6902 147.665C54.513 145.747 55.8518 144.419 57.7065 143.681C59.5613 142.942 61.4127 142.999 63.2607 143.853C65.0061 144.659 66.2347 146.025 66.9467 147.949C67.6587 149.874 67.6033 151.795 66.7805 153.712ZM93.115 165.878C92.2922 167.795 90.9534 169.123 89.0986 169.862C87.2439 170.601 85.3925 170.543 83.5445 169.689C81.7991 168.883 80.5704 167.518 79.8585 165.593C79.1465 163.669 79.2019 161.748 80.0247 159.83C80.8475 157.913 82.1863 156.585 84.041 155.846C85.8958 155.107 87.6958 155.141 89.4412 155.947C91.2892 156.801 92.5692 158.19 93.2812 160.115C93.9932 162.039 93.9378 163.96 93.115 165.878ZM119.449 178.043C118.627 179.961 117.288 181.289 115.433 182.027C113.578 182.766 111.727 182.709 109.879 181.855C108.031 181.001 106.751 179.612 106.039 177.688C105.327 175.763 105.382 173.842 106.205 171.925C107.028 170.007 108.367 168.679 110.222 167.94C112.076 167.202 113.928 167.259 115.776 168.113C117.624 168.967 118.904 170.356 119.616 172.28C120.328 174.205 120.272 176.126 119.449 178.043ZM152.252 193.197C151.429 195.114 150.091 196.442 148.236 197.181C146.381 197.92 144.53 197.862 142.682 197.008C140.936 196.202 139.708 194.837 138.996 192.912C138.284 190.988 138.339 189.067 139.162 187.149C139.985 185.232 141.323 183.904 143.178 183.165C145.033 182.426 146.833 182.46 148.578 183.266C150.426 184.12 151.706 185.509 152.418 187.434C153.13 189.358 153.075 191.279 152.252 193.197ZM-6.96138 160.428C-7.78418 162.346 -9.12295 163.674 -10.9777 164.413C-12.8324 165.151 -14.6325 165.118 -16.3779 164.311C-18.2259 163.458 -19.5059 162.069 -20.2179 160.144C-20.9298 158.22 -20.8744 156.299 -20.0516 154.381C-19.2745 152.57 -17.9586 151.295 -16.1039 150.557C-14.2491 149.818 -12.3977 149.875 -10.5497 150.729C-8.80434 151.535 -7.57567 152.901 -6.8637 154.825C-6.15173 156.75 -6.18429 158.617 -6.96138 160.428ZM19.3731 172.594C18.5503 174.511 17.2116 175.839 15.3568 176.578C13.5021 177.317 11.6507 177.259 9.80263 176.406C8.05726 175.599 6.8286 174.234 6.11663 172.31C5.40466 170.385 5.46007 168.464 6.28287 166.547C7.05996 164.736 8.37588 163.461 10.2306 162.722C12.0854 161.983 13.8854 162.017 15.6308 162.824C17.4788 163.677 18.7588 165.066 19.4708 166.991C20.1828 168.915 20.1502 170.783 19.3731 172.594ZM52.1758 187.747C51.353 189.665 50.0142 190.993 48.1594 191.732C46.3047 192.47 44.5046 192.437 42.7593 191.63C40.9112 190.777 39.6312 189.388 38.9193 187.463C38.2073 185.539 38.2627 183.618 39.0855 181.7C39.8626 179.889 41.1785 178.614 43.0333 177.876C44.888 177.137 46.7394 177.194 48.5874 178.048C50.3328 178.854 51.5615 180.22 52.2734 182.144C52.9854 184.069 52.9528 185.936 52.1758 187.747ZM78.5103 199.913C77.6875 201.83 76.3487 203.158 74.4939 203.897C72.6392 204.636 70.7878 204.578 68.9398 203.725C67.1944 202.918 65.9657 201.553 65.2538 199.629C64.5418 197.704 64.5972 195.783 65.42 193.866C66.1971 192.055 67.513 190.78 69.3678 190.041C71.2225 189.302 73.0226 189.336 74.7679 190.143C76.616 190.996 77.896 192.385 78.6079 194.31C79.3199 196.234 79.2874 198.102 78.5103 199.913ZM104.845 212.078C104.022 213.996 102.683 215.324 100.828 216.063C98.9737 216.801 97.1223 216.744 95.2743 215.89C93.4262 215.036 92.1462 213.647 91.4343 211.723C90.7223 209.798 90.7777 207.878 91.6005 205.96C92.3776 204.149 93.6935 202.874 95.5483 202.136C97.403 201.397 99.2544 201.454 101.102 202.308C102.95 203.162 104.23 204.551 104.942 206.475C105.654 208.4 105.622 210.267 104.845 212.078ZM137.647 227.232C136.825 229.149 135.486 230.477 133.631 231.216C131.776 231.955 129.925 231.897 128.077 231.044C126.332 230.237 125.103 228.872 124.391 226.948C123.679 225.023 123.734 223.102 124.557 221.185C125.334 219.374 126.65 218.099 128.505 217.36C130.36 216.621 132.16 216.655 133.905 217.462C135.753 218.315 137.033 219.704 137.745 221.629C138.457 223.553 138.424 225.421 137.647 227.232Z" fill="#EEEEEE"/>
</svg>
