<svg width="67" height="43" viewBox="0 0 67 43" fill="none" xmlns="http://www.w3.org/2000/svg">
<g clip-path="url(#clip0_4186_83)">
<path d="M4.01409 21.2959C5.12615 20.7566 6.45154 21.1575 7.08744 22.1825L7.2052 22.3957C7.26692 22.523 7.31496 22.6514 7.35205 22.7785L7.34901 22.8007L7.41641 23.0435C7.52314 23.4337 7.65739 23.8215 7.82182 24.2038L7.99559 24.5843C9.37938 27.4191 12.2535 29.414 15.2717 29.6224L15.3517 29.6284L15.4174 29.6236L15.4281 29.625L15.4399 29.6247C15.8547 29.6182 16.2821 29.4914 16.6432 29.2429C16.6672 29.3467 16.6934 29.4505 16.724 29.5535C16.8292 29.9092 17.0272 30.1734 17.1996 30.3517L17.1994 30.3527C17.3287 30.487 17.5876 30.8848 17.7312 31.1793L17.7322 31.1794C18.3073 32.3582 17.8166 33.7788 16.6327 34.3529C15.4466 34.928 14.0177 34.4336 13.4416 33.253C13.3058 32.9739 13.1535 32.542 13.1261 32.3731L13.1143 32.3005L13.0935 32.2287L12.9829 31.8765C12.8647 31.5254 12.7227 31.1787 12.5578 30.8388L12.5571 30.8367L12.4242 30.5761C11.0143 27.9161 8.27772 26.043 5.39529 25.8063L5.30561 25.799L5.21615 25.8045C4.27405 25.8637 3.35105 25.3615 2.91562 24.4694C2.34056 23.2907 2.83033 21.87 4.01409 21.2959ZM19.9614 14.4069C20.3895 13.1699 21.7456 12.5082 22.9936 12.9382C24.2409 13.3683 24.8988 14.7233 24.4707 15.9587L24.4706 15.9597C24.3916 16.1873 24.2823 16.3946 24.1496 16.5782L24.1048 16.6391L24.0693 16.7043C23.8328 17.1325 23.6285 17.5866 23.4629 18.0634L23.4628 18.0644C22.4303 21.0482 23.1407 24.2099 25.0447 26.4481L25.1023 26.5171L25.1702 26.5757C25.8772 27.1971 26.1728 28.2015 25.8496 29.1364C25.4215 30.3734 24.0646 31.0352 22.8165 30.6049L22.8167 30.604L22.6388 30.5353C21.7732 30.1586 21.2305 29.3152 21.209 28.4093C21.2021 28.0971 21.1244 27.6925 20.8649 27.3206C21.3334 27.1581 21.7394 26.8132 21.9592 26.3582L21.9593 26.3572C22.0928 26.08 22.2285 25.7716 22.3295 25.4793C23.3756 22.4572 22.6326 19.2513 20.6719 17.0073L20.631 16.9604L20.5846 16.9176L20.4643 16.7957C19.9029 16.1905 19.679 15.3188 19.9324 14.4897L19.9614 14.4069ZM16.6416 23.9765C16.9477 23.8281 17.3111 23.9199 17.5109 24.1789L17.5125 24.1811C17.5279 24.201 17.5416 24.2214 17.5545 24.242L17.5902 24.3051C17.6234 24.3739 17.6433 24.4406 17.6538 24.504L17.6655 24.5765L17.6864 24.6474C17.7689 24.9323 17.8773 25.2133 18.0097 25.4849C18.0482 25.5638 18.0888 25.6411 18.1308 25.7173C17.7406 25.7671 17.3752 25.9433 17.0944 26.2195C17.0581 26.1343 17.0207 26.0484 16.9794 25.9643C16.8328 25.6642 16.6584 25.3801 16.4602 25.1177L16.3542 24.9771C16.3409 24.9558 16.3286 24.9343 16.3178 24.912L16.3168 24.9119C16.1476 24.565 16.2914 24.1466 16.6416 23.9765Z" fill="#CBFF4D" stroke="#CBFF4D" stroke-width="2.47377"/>
<path d="M52.2477 32.413C52.8416 31.4179 54.1377 31.0884 55.1403 31.6852L55.1411 31.6863C56.1419 32.2814 56.4675 33.5706 55.8739 34.5638L55.8728 34.5647C55.2789 35.5596 53.9838 35.8892 52.9812 35.2926L52.9804 35.2915C51.9794 34.6965 51.6539 33.4073 52.2476 32.414L52.2477 32.413Z" fill="#CBFF4D" stroke="#CBFF4D" stroke-width="2.47377"/>
<path d="M60.0901 19.2931C60.6857 18.2988 61.9806 17.9714 62.9834 18.5674L63.0043 18.5801C63.9883 19.182 64.3042 20.458 63.7152 21.4447C63.5904 21.653 63.3867 21.876 63.1494 22.0594C62.8994 22.2526 62.7081 22.3295 62.6484 22.3429L62.5835 22.3567L62.5214 22.3778C62.5197 22.3783 62.518 22.3794 62.5162 22.38C62.4781 22.3929 62.3876 22.4248 62.2796 22.4887C61.7839 22.7815 61.2624 23.0689 60.8787 23.4013C60.4014 23.8149 60.1234 24.2879 59.9262 24.8986C59.772 25.3761 59.755 25.8337 59.7695 26.2058C59.7759 26.3703 59.792 26.557 59.8085 26.7286L59.8501 27.1601C59.8848 27.5796 59.7947 28.0111 59.5612 28.4029C58.9661 29.3984 57.671 29.7269 56.6677 29.1306C55.6671 28.5341 55.3429 27.246 55.936 26.2522L55.9361 26.2513C56.1687 25.8613 56.5068 25.5758 56.8921 25.407C57.0807 25.3243 57.4664 25.1711 57.758 25.0274C58.0872 24.8653 58.4755 24.6368 58.8187 24.2822L58.8189 24.2812C59.1745 23.9134 59.4509 23.5238 59.6185 23.0302C59.7343 22.6891 59.781 22.343 59.8048 22.0119L59.8226 21.6861C59.8348 21.3976 59.8217 21.1195 59.8109 20.898C59.7993 20.6593 59.7904 20.4825 59.7944 20.3113C59.803 19.9658 59.8983 19.617 60.091 19.2942L60.0901 19.2931Z" fill="#CBFF4D" stroke="#CBFF4D" stroke-width="2.47377"/>
<path d="M56.9352 35.1986C55.9905 36.7815 53.9359 37.2999 52.3486 36.355C50.761 35.4115 50.2399 33.3618 51.1861 31.7791C52.1308 30.1962 54.1854 29.6778 55.7727 30.6227C57.3603 31.5662 57.8814 33.6159 56.9352 35.1986Z" fill="#CBFF4D" stroke="#CBFF4D" stroke-width="1.58322"/>
<path d="M63.615 17.5041C62.0274 16.5606 59.9745 17.0778 59.0284 18.6605C58.7238 19.1707 58.5713 19.7285 58.5579 20.2827C58.5474 20.7329 58.6061 21.1841 58.587 21.6345C58.5521 22.4708 58.4687 22.8645 57.9299 23.4218C57.5197 23.8456 56.9361 24.0369 56.3959 24.2736C55.7818 24.5426 55.2426 24.9997 54.8738 25.6183C53.929 27.2012 54.4489 29.2493 56.0363 30.1942C57.6238 31.1377 59.6768 30.6206 60.6229 29.0378C60.9935 28.4167 61.1388 27.7252 61.0831 27.0557C61.0327 26.4604 60.9197 25.848 61.1035 25.2789C61.3879 24.3976 61.7785 24.2209 62.9081 23.5537C62.9113 23.5513 62.9156 23.5505 62.9186 23.5495C63.5097 23.4171 64.3414 22.808 64.7777 22.0787C65.7225 20.4958 65.2026 18.4476 63.6152 17.5027L63.615 17.5041Z" fill="#CBFF4D" stroke="#CBFF4D" stroke-width="1.58322"/>
<path d="M27.3289 4.32403C25.1292 5.06669 23.951 7.44757 24.6971 9.64231C24.991 10.5052 25.5383 11.2122 26.2282 11.7043C26.2501 11.72 26.2708 11.7341 26.2927 11.7498C28.1504 13.0675 29.3122 15.254 29.2433 17.6452C29.2389 17.8224 29.2074 18.0016 29.2082 18.1823C29.2078 18.4758 29.2641 18.7262 29.3561 18.9956C29.5229 19.4841 29.7973 19.8067 30.1762 20.2126C31.5495 21.9694 32.0433 24.3329 31.3552 26.5648C31.0721 27.4053 31.0519 28.3411 31.36 29.2454C32.1061 31.4402 34.4938 32.6171 36.6936 31.8744C38.8933 31.1317 40.0715 28.7509 39.3254 26.5561C39.0224 25.6666 38.4504 24.9435 37.7312 24.4488C36.849 23.8217 36.1478 23.019 35.6495 22.1183C35.2069 21.3184 35.7282 20.3805 36.6293 20.217C38.0222 19.964 39.4748 19.9054 40.9551 20.0694C42.6362 20.2551 44.2379 20.7221 45.715 21.4177C46.5445 21.8089 46.7733 23.1286 46.1398 23.7887C45.4916 24.4637 44.7 25.0176 43.7947 25.3992C42.9846 25.7262 42.2688 26.3059 41.78 27.1085C40.5746 29.0877 41.207 31.6691 43.192 32.8729C45.177 34.0767 47.7645 33.4476 48.97 31.4684C49.4662 30.6527 49.6509 29.7352 49.5576 28.8531C49.3717 26.5246 50.4059 24.0478 52.1272 22.633C52.6327 22.2575 52.9236 22.0643 53.1917 21.6239C53.3394 21.3816 53.4318 21.1712 53.5136 20.862C53.5589 20.6861 53.5624 20.5046 53.5962 20.3299C54.0497 17.9814 55.6607 16.0999 57.759 15.2192C57.7831 15.2084 57.807 15.199 57.8324 15.1897C58.6133 14.8588 59.3009 14.2894 59.7751 13.5102C60.9806 11.531 60.3481 8.94954 58.3631 7.74575C56.3781 6.54195 53.7906 7.17101 52.5851 9.15019C52.0928 9.95798 51.9069 10.864 51.9942 11.7382C52.1632 13.6199 51.5385 15.3877 50.3946 16.75C47.671 18.8424 44.7384 18.8485 41.5615 18.4982C38.743 18.1868 35.9268 17.6091 33.9029 15.6435C33.2881 15.0473 32.8329 14.2979 32.6044 13.4736C32.2622 12.2386 32.2613 10.9077 32.6762 9.60948C32.9513 8.77627 32.9674 7.84985 32.6621 6.95577C31.916 4.76103 29.5283 3.58413 27.3285 4.3268L27.3289 4.32403Z" fill="#CBFF4D" stroke="#CBFF4D" stroke-width="1.95428"/>
</g>
<defs>
<clipPath id="clip0_4186_83">
<rect width="62.9185" height="34.05" fill="white" transform="translate(4.60498) rotate(7.77258)"/>
</clipPath>
</defs>
</svg>
